<svg fill="#5bffe4" xmlns="http://www.w3.org/2000/svg" xmlns:xlink="http://www.w3.org/1999/xlink" version="1.1" x="0px" y="0px" viewBox="0 0 512 640" enable-background="new 0 0 512 512" xml:space="preserve"><g><g><path d="M382.925,208.975c2.644,5.543,7.368,7.074,12.774,8.35c6.976,1.645,13.951,3.29,20.927,4.936    c8.064,1.902,16.131,3.805,24.194,5.708c2.665,0.628,5.33,1.257,7.995,1.885c0.807,0.19,3.87,1.284,2.987,0.779    c0-4.476,0-8.95,0-13.426c0.956-0.547-1.571,0.444-2.269,0.609c-2.509,0.592-5.018,1.184-7.528,1.776    c-7.466,1.762-14.932,3.522-22.396,5.283c-7.053,1.664-14.104,3.327-21.156,4.991c-3.932,0.927-9.198,1.46-12.195,4.458    c-3.729,3.73-4.428,7.717-5.571,12.561c-1.623,6.88-3.245,13.76-4.868,20.64c-1.786,7.569-3.57,15.139-5.356,22.707    c-0.629,2.665-1.257,5.33-1.887,7.995c-0.19,0.807-1.282,3.871-0.778,2.989c4.475,0,8.951,0,13.425,0    c0.546,0.954-0.444-1.573-0.607-2.269c-0.593-2.51-1.185-5.02-1.775-7.529c-1.763-7.466-3.522-14.932-5.285-22.397    c-1.662-7.052-3.326-14.104-4.989-21.157c-0.928-3.93-1.461-9.199-4.458-12.196c-3.73-3.729-7.716-4.428-12.56-5.571    c-6.881-1.623-13.761-3.247-20.64-4.869c-7.57-1.785-15.14-3.571-22.708-5.356c-2.665-0.628-5.33-1.257-7.994-1.885    c-0.807-0.191-3.871-1.284-2.989-0.779c0,4.476,0,8.95,0,13.426c-0.955,0.547,1.571-0.444,2.269-0.609    c2.51-0.592,5.021-1.184,7.528-1.776c7.466-1.762,14.932-3.522,22.397-5.283c7.052-1.664,14.105-3.327,21.157-4.991    c3.93-0.927,9.198-1.461,12.195-4.458c3.73-3.729,4.429-7.716,5.571-12.56c1.621-6.879,3.245-13.758,4.868-20.639    c1.785-7.568,3.571-15.137,5.355-22.706c0.629-2.664,1.258-5.329,1.886-7.993c0.192-0.807,1.282-3.871,0.778-2.988    c-4.474,0-8.95,0-13.425,0c-0.561-0.981,0.308,0.994,0.455,1.62c0.555,2.346,1.106,4.692,1.662,7.038    c1.612,6.844,3.228,13.688,4.843,20.532c2.462,10.433,4.923,20.867,7.385,31.3c2.302,9.757,17.292,5.618,14.993-4.134    c-2.462-10.434-4.923-20.866-7.384-31.301c-1.702-7.206-3.402-14.413-5.102-21.62c-0.908-3.847-1.447-7.82-3.428-11.284    c-2.883-5.046-10.542-5.046-13.425,0c-1.824,3.19-2.347,6.702-3.183,10.248c-1.663,7.052-3.327,14.104-4.989,21.155    c-2.575,10.917-5.15,21.835-7.728,32.753c0.464-1.968,2.607-1.86-0.551-1.116c-2.345,0.554-4.69,1.107-7.037,1.66    c-7.346,1.732-14.69,3.466-22.035,5.199c-7.207,1.7-14.414,3.399-21.622,5.1c-3.848,0.907-7.82,1.447-11.284,3.426    c-5.045,2.885-5.045,10.541,0,13.426c3.19,1.824,6.703,2.345,10.249,3.182c7.052,1.664,14.104,3.328,21.155,4.991    c10.92,2.576,21.837,5.151,32.756,7.727c-1.97-0.464-1.859-2.604-1.116,0.551c0.555,2.346,1.106,4.692,1.66,7.038    c1.733,7.346,3.466,14.691,5.198,22.036c1.699,7.208,3.399,14.415,5.099,21.622c0.908,3.848,1.447,7.82,3.428,11.284    c2.883,5.046,10.542,5.046,13.425,0c1.824-3.191,2.347-6.702,3.184-10.248c1.662-7.053,3.326-14.105,4.991-21.158    c2.575-10.918,5.149-21.836,7.728-32.755c-0.465,1.968-2.607,1.86,0.549,1.116c2.347-0.554,4.692-1.107,7.037-1.66    c7.346-1.733,14.692-3.466,22.036-5.199c7.207-1.7,14.414-3.4,21.621-5.1c3.847-0.907,7.819-1.447,11.283-3.426    c5.046-2.885,5.046-10.541,0-13.426c-3.19-1.824-6.702-2.346-10.247-3.182c-7.052-1.664-14.104-3.328-21.157-4.991    c-7.464-1.761-14.93-3.522-22.397-5.284c-2.509-0.592-5.018-1.183-7.527-1.775c-0.707-0.167-1.414-0.334-2.122-0.501    c-1.441-0.339,0.288-0.06,0.151-0.346C392.035,192.081,378.632,199.975,382.925,208.975z"/></g><g><path d="M194.268,141.137c3.524,7.384,11.319,8.005,18.352,9.665c10.842,2.557,21.683,5.115,32.523,7.672    c11.69,2.758,23.38,5.516,35.07,8.273c3.835,0.905,7.672,1.81,11.51,2.714c1.063,0.251,5.015,1.503,4.284,1.085    c0-4.476,0-8.95,0-13.426c0.844-0.481-2.667,0.704-3.593,0.922c-3.684,0.868-7.364,1.736-11.046,2.604    c-11.077,2.614-22.155,5.227-33.232,7.84c-10.816,2.552-21.633,5.104-32.45,7.655c-5.181,1.222-14.046,1.81-18.084,5.847    c-4.663,4.664-5.248,11.189-6.7,17.348c-2.598,11.012-5.194,22.022-7.792,33.033c-2.64,11.191-5.279,22.382-7.918,33.574    c-0.905,3.837-1.811,7.673-2.715,11.509c-0.25,1.064-1.501,5.016-1.084,4.286c4.476,0,8.95,0,13.425,0    c0.48,0.84-0.703-2.668-0.922-3.594c-0.869-3.682-1.737-7.363-2.606-11.045c-2.613-11.078-5.226-22.155-7.84-33.232    c-2.552-10.817-5.104-21.634-7.655-32.451c-1.223-5.181-1.811-14.046-5.849-18.084c-4.663-4.662-11.188-5.248-17.347-6.701    c-11.011-2.598-22.021-5.195-33.032-7.793c-11.191-2.64-22.382-5.279-33.573-7.919c-3.836-0.905-7.673-1.81-11.509-2.714    c-1.064-0.251-5.015-1.502-4.286-1.085c0,4.476,0,8.95,0,13.426c-0.841,0.48,2.668-0.704,3.594-0.922    c3.681-0.869,7.363-1.737,11.044-2.605c11.077-2.613,22.155-5.227,33.231-7.839c10.816-2.552,21.633-5.104,32.449-7.656    c5.183-1.223,14.046-1.811,18.084-5.848c4.664-4.664,5.248-11.188,6.701-17.348c2.598-11.011,5.195-22.021,7.793-33.032    c2.641-11.191,5.281-22.382,7.921-33.573c0.905-3.837,1.81-7.672,2.715-11.508c0.251-1.066,1.502-5.014,1.085-4.286    c-4.475,0-8.95,0-13.425,0c-0.529-0.926,0.577,2.138,0.769,2.95c0.831,3.521,1.661,7.042,2.491,10.564    c2.584,10.952,5.167,21.903,7.751,32.855c3.693,15.661,7.387,31.32,11.081,46.979c2.301,9.757,17.293,5.618,14.993-4.133    c-3.811-16.16-7.623-32.318-11.435-48.478c-2.551-10.817-5.102-21.633-7.653-32.449c-1.242-5.267-1.849-11.373-4.572-16.137    c-2.885-5.047-10.539-5.045-13.425,0c-2.562,4.478-3.154,10.124-4.323,15.079c-2.518,10.669-5.034,21.34-7.552,32.009    c-3.927,16.648-7.855,33.296-11.783,49.944c0.396-1.679,2.702-1.898,0.581-1.398c-1.035,0.244-2.068,0.488-3.104,0.733    c-3.681,0.868-7.362,1.737-11.044,2.605c-11.078,2.614-22.155,5.227-33.231,7.84c-10.816,2.552-21.633,5.104-32.449,7.656    c-5.267,1.242-11.373,1.848-16.137,4.571c-5.046,2.885-5.046,10.542,0,13.426c4.479,2.56,10.123,3.153,15.079,4.322    c10.67,2.517,21.34,5.034,32.01,7.552c16.648,3.926,33.297,7.854,49.945,11.781c-1.678-0.396-1.898-2.703-1.397-0.582    c0.244,1.034,0.488,2.069,0.732,3.103c0.869,3.681,1.737,7.363,2.606,11.045c2.613,11.077,5.227,22.154,7.84,33.231    c2.552,10.817,5.104,21.634,7.655,32.451c1.244,5.266,1.849,11.374,4.573,16.137c2.886,5.045,10.541,5.048,13.425,0    c2.561-4.479,3.153-10.123,4.322-15.079c2.517-10.67,5.033-21.34,7.55-32.01c3.927-16.649,7.854-33.297,11.78-49.945    c-0.396,1.68-2.703,1.898-0.582,1.398c1.034-0.245,2.069-0.488,3.103-0.732c3.681-0.869,7.364-1.737,11.045-2.605    c11.076-2.613,22.154-5.227,33.232-7.839c10.816-2.552,21.632-5.104,32.45-7.656c5.266-1.242,11.373-1.848,16.136-4.571    c5.045-2.885,5.045-10.541,0-13.426c-4.763-2.723-10.87-3.329-16.136-4.571c-10.818-2.553-21.634-5.104-32.45-7.656    c-11.078-2.613-22.156-5.226-33.232-7.84c-3.682-0.868-7.364-1.737-11.045-2.605c-1.034-0.245-2.069-0.489-3.103-0.733    c-1.783-0.419-0.094-0.217-0.194-0.427C203.377,124.243,189.973,132.136,194.268,141.137z"/></g><g><path d="M265.934,354.099c3.131,6.563,9.13,7.488,15.379,8.961c8.579,2.024,17.16,4.051,25.741,6.073    c9.465,2.232,18.927,4.465,28.392,6.697c3.224,0.761,6.447,1.521,9.673,2.281c0.832,0.196,3.991,1.313,3.104,0.807    c0-4.475,0-8.951,0-13.425c0.958-0.549-1.702,0.474-2.43,0.646c-3.058,0.722-6.118,1.442-9.175,2.164    c-8.852,2.089-17.703,4.176-26.553,6.263c-8.586,2.025-17.171,4.05-25.757,6.074c-4.538,1.071-11.546,1.634-15.043,5.129    c-4.113,4.115-4.719,8.955-5.989,14.341c-2.068,8.766-4.135,17.53-6.203,26.296c-2.114,8.962-4.229,17.925-6.343,26.889    c-0.76,3.224-1.521,6.447-2.28,9.672c-0.197,0.832-1.314,3.992-0.807,3.104c4.476,0,8.95,0,13.425,0    c0.548,0.958-0.474-1.701-0.646-2.429c-0.723-3.058-1.443-6.118-2.165-9.176c-2.088-8.852-4.176-17.702-6.264-26.553    c-2.025-8.586-4.051-17.17-6.075-25.756c-1.072-4.54-1.635-11.547-5.131-15.044c-4.114-4.114-8.953-4.72-14.341-5.991    c-8.765-2.065-17.529-4.133-26.293-6.201c-8.962-2.112-17.925-4.229-26.887-6.341c-3.224-0.762-6.448-1.521-9.672-2.282    c-0.832-0.195-3.992-1.313-3.105-0.805c0,4.474,0,8.95,0,13.425c-0.959,0.547,1.702-0.476,2.429-0.646    c3.059-0.722,6.117-1.442,9.175-2.164c8.851-2.088,17.701-4.175,26.552-6.263c8.584-2.026,17.169-4.052,25.755-6.078    c4.538-1.07,11.546-1.633,15.042-5.129c4.114-4.114,4.721-8.951,5.991-14.339c2.068-8.766,4.137-17.53,6.203-26.296    c2.115-8.962,4.229-17.923,6.344-26.886c0.761-3.225,1.521-6.448,2.282-9.673c0.196-0.832,1.313-3.992,0.805-3.104    c-4.475,0-8.949,0-13.425,0c-0.548-0.958,0.476,1.703,0.646,2.429c0.633,2.682,1.265,5.361,1.897,8.044    c2.058,8.725,4.115,17.448,6.174,26.174c2.93,12.418,5.859,24.837,8.788,37.255c2.303,9.757,17.294,5.618,14.993-4.134    c-3.047-12.922-6.097-25.843-9.144-38.765c-2.025-8.585-4.051-17.17-6.075-25.755c-1.032-4.376-1.599-9.149-3.855-13.097    c-2.883-5.046-10.54-5.046-13.425,0c-2.096,3.667-2.647,7.979-3.607,12.05c-1.989,8.431-3.979,16.863-5.967,25.294    c-3.164,13.41-6.328,26.821-9.492,40.232c0.517-2.187,2.344-1.806-1.357-0.933c-3.06,0.721-6.117,1.442-9.176,2.164    c-8.851,2.088-17.701,4.175-26.552,6.263c-8.584,2.025-17.17,4.052-25.754,6.078c-4.375,1.031-9.149,1.597-13.096,3.854    c-5.046,2.883-5.046,10.542,0,13.425c3.667,2.096,7.98,2.646,12.05,3.605c8.431,1.99,16.862,3.979,25.293,5.967    c13.411,3.165,26.822,6.327,40.233,9.49c-2.187-0.517-1.807-2.345-0.933,1.357c0.721,3.058,1.442,6.118,2.164,9.176    c2.088,8.851,4.176,17.702,6.264,26.552c2.025,8.586,4.051,17.171,6.076,25.757c1.032,4.376,1.598,9.15,3.854,13.096    c2.885,5.046,10.54,5.046,13.425,0c2.098-3.666,2.647-7.979,3.608-12.048c1.988-8.432,3.978-16.863,5.967-25.296    c3.163-13.41,6.325-26.822,9.49-40.233c-0.517,2.187-2.345,1.805,1.357,0.933c3.058-0.723,6.118-1.443,9.176-2.164    c8.851-2.088,17.702-4.177,26.552-6.263c8.586-2.024,17.171-4.051,25.757-6.075c4.375-1.031,9.148-1.597,13.095-3.854    c5.046-2.885,5.046-10.541,0-13.425c-3.946-2.257-8.72-2.822-13.095-3.854c-8.586-2.026-17.171-4.053-25.757-6.078    c-8.85-2.088-17.701-4.175-26.552-6.263c-2.833-0.669-5.667-1.337-8.501-2.005c-0.912-0.215-1.826-0.431-2.738-0.646    c-1.669-0.395,0.044-0.161-0.068-0.396C275.044,337.204,261.64,345.097,265.934,354.099z"/></g></g></svg>
