<svg fill="#5bffe4" xmlns="http://www.w3.org/2000/svg" xmlns:xlink="http://www.w3.org/1999/xlink" version="1.1" x="0px" y="0px" viewBox="0 0 512 640" enable-background="new 0 0 512 512" xml:space="preserve"><g><g><g><path d="M442.65,298.32c0.895-22.652-9.882-43.476-28.22-56.57c-20.388-14.559-48.106-15.027-69.88-3.424     c2.448,0.996,4.896,1.992,7.345,2.988c-7.159-18.107-21.008-31.707-39.178-38.677c-20.359-7.81-44.224-3.945-61.757,8.648     c2.448,0.996,4.896,1.992,7.345,2.988c-6.719-25.941-28.854-45.616-55.485-49.015c-27.871-3.557-55.41,10.984-67.975,36.151     c1.439-0.826,2.878-1.651,4.317-2.477c-21.212-1.796-42.131,6.544-56.143,22.601c-15.128,17.336-19.532,41.749-12.248,63.456     c0.766-1.882,1.532-3.765,2.298-5.646c-21.562,11.087-35.663,32.762-35.979,57.124c-0.291,22.501,12.8,43.111,31.604,54.734     c17.685,10.932,37.399,9.727,57.142,9.727c59.28,0,118.56,0,177.84,0c24.308,0,48.614,0,72.922,0c4.514,0,9.028,0,13.542,0     c19.624,0,38.512-8.443,51.44-23.222c20.91-23.9,19.904-59.051-0.396-82.921c-4.184-4.92-11.222,2.189-7.07,7.07     c16.534,19.442,17.229,47.819,1.236,67.776c-11.057,13.797-28.11,21.296-45.642,21.296c-15.842,0-31.685,0-47.527,0     c-61.81,0-123.62,0-185.429,0c-17.14,0-34.279,0-51.419,0c-15.331,0-29.739-5.087-41.084-15.55     c-17.318-15.971-21.963-41.77-11.379-62.772c5.448-10.813,14.57-19.139,25.247-24.628c1.899-0.977,2.978-3.622,2.298-5.646     c-6.377-19.005-2.706-39.538,10.526-54.701c12.069-13.832,30.139-20.229,48.222-18.698c1.627,0.138,3.594-1.028,4.317-2.477     c10.935-21.901,33.689-33.905,57.931-31.377c22.766,2.374,41.614,20.086,47.252,41.853c0.755,2.917,4.708,4.882,7.345,2.988     c29.526-21.208,72.611-10.428,86.245,24.052c1.206,3.05,4.269,4.627,7.345,2.988c19.175-10.218,41.935-8.76,59.786,3.424     c15.631,10.668,24.003,29.289,23.267,47.936C432.396,304.771,442.396,304.747,442.65,298.32z"/></g></g><g><g><path d="M412.794,246.359c14.739-29.382,1.164-64.204-29.286-76.12c-30.002-11.74-63.758,7.854-71.323,38.306     c-1.556,6.26,8.089,8.914,9.643,2.658c6.221-25.041,31.784-39.599,56.508-32.188c26.005,7.795,37.727,38.571,25.824,62.298     C401.276,247.059,409.902,252.125,412.794,246.359L412.794,246.359z"/></g></g><g><g><path d="M359.885,116.072c0,11.841,0,23.682,0,35.523c0,6.449,10,6.449,10,0c0-11.841,0-23.682,0-35.523     C369.885,109.623,359.885,109.623,359.885,116.072L359.885,116.072z"/></g></g><g><g><path d="M435.609,143.297c-8.372,8.373-16.744,16.745-25.115,25.118c-4.563,4.564,2.507,11.635,7.07,7.071     c8.372-8.373,16.744-16.745,25.115-25.118C447.243,145.805,440.173,138.733,435.609,143.297L435.609,143.297z"/></g></g><g><g><path d="M319.275,168.415c-8.373-8.372-16.746-16.745-25.119-25.117c-4.563-4.563-11.635,2.508-7.07,7.071     c8.373,8.372,16.746,16.745,25.119,25.117C316.769,180.049,323.84,172.978,319.275,168.415L319.275,168.415z"/></g></g><g><g><path d="M469.908,216.095c-11.841,0-23.683,0-35.523,0c-6.448,0-6.448,10,0,10c11.841,0,23.683,0,35.523,0     C476.356,226.095,476.356,216.095,469.908,216.095L469.908,216.095z"/></g></g></g></svg>
