<svg fill="#5bffe4" xmlns="http://www.w3.org/2000/svg" xmlns:xlink="http://www.w3.org/1999/xlink" version="1.1" x="0px" y="0px" viewBox="0 0 512 640" enable-background="new 0 0 512 512" xml:space="preserve"><g><g><g><path d="M420.02,174.434c1.951,4.091,5.607,4.754,9.51,5.675c5.226,1.233,10.45,2.465,15.676,3.698     c5.798,1.368,11.597,2.736,17.396,4.104c1.901,0.449,3.803,0.897,5.704,1.346c0.558,0.131,2.674,0.863,2.124,0.548     c0-2.878,0-5.756,0-8.635c0.604-0.346-1.186,0.327-1.667,0.44c-1.802,0.425-3.604,0.85-5.404,1.275     c-5.404,1.274-10.81,2.549-16.214,3.824c-5.232,1.234-10.466,2.468-15.698,3.703c-2.837,0.669-7.103,1.027-9.282,3.207     c-2.567,2.568-2.971,5.484-3.762,8.836c-1.261,5.346-2.521,10.691-3.783,16.037c-1.291,5.476-2.583,10.951-3.875,16.427     c-0.448,1.901-0.896,3.803-1.346,5.705c-0.131,0.557-0.862,2.673-0.548,2.124c2.878,0,5.757,0,8.635,0     c0.345,0.604-0.327-1.186-0.44-1.667c-0.425-1.801-0.85-3.603-1.274-5.404c-1.274-5.404-2.55-10.808-3.824-16.212     c-1.234-5.233-2.468-10.465-3.702-15.698c-0.669-2.836-1.026-7.103-3.206-9.282c-2.568-2.568-5.483-2.971-8.837-3.762     c-5.346-1.261-10.691-2.522-16.038-3.783c-5.476-1.292-10.952-2.583-16.428-3.875c-1.902-0.448-3.804-0.897-5.705-1.345     c-0.558-0.132-2.674-0.863-2.124-0.548c0,2.878,0,5.756,0,8.635c-0.604,0.346,1.186-0.327,1.667-0.44     c1.802-0.425,3.604-0.85,5.405-1.275c5.404-1.275,10.809-2.55,16.214-3.825c5.232-1.234,10.466-2.469,15.699-3.703     c2.837-0.669,7.103-1.027,9.282-3.207c2.567-2.568,2.971-5.483,3.762-8.836c1.261-5.345,2.521-10.691,3.782-16.037     c1.291-5.476,2.583-10.951,3.874-16.427c0.448-1.901,0.896-3.803,1.346-5.705c0.131-0.557,0.862-2.673,0.548-2.124     c-2.878,0-5.757,0-8.635,0c-0.361-0.632,0.242,0.824,0.343,1.252c0.4,1.697,0.801,3.393,1.2,5.09     c1.256,5.323,2.512,10.646,3.768,15.969c1.785,7.568,3.57,15.135,5.355,22.703c1.48,6.275,11.122,3.613,9.643-2.658     c-1.861-7.892-3.724-15.784-5.585-23.675c-1.234-5.233-2.469-10.465-3.703-15.698c-0.637-2.7-0.995-5.597-2.386-8.03     c-1.854-3.246-6.78-3.246-8.635,0c-1.288,2.254-1.637,4.855-2.228,7.359c-1.21,5.132-2.421,10.265-3.632,15.397     c-1.936,8.206-3.871,16.413-5.806,24.619c0.234-0.996,1.678-1.2,0.652-0.958c-0.544,0.128-1.088,0.257-1.631,0.385     c-1.802,0.425-3.604,0.85-5.405,1.275c-5.404,1.275-10.809,2.55-16.214,3.825c-5.232,1.234-10.466,2.469-15.699,3.703     c-2.699,0.637-5.597,0.995-8.029,2.386c-3.245,1.855-3.245,6.779,0,8.635c2.254,1.289,4.854,1.637,7.358,2.228     c5.133,1.21,10.267,2.421,15.399,3.632c8.207,1.936,16.414,3.872,24.621,5.807c-0.997-0.235-1.2-1.677-0.959-0.652     c0.128,0.544,0.257,1.087,0.385,1.631c0.425,1.801,0.85,3.603,1.274,5.404c1.274,5.404,2.55,10.808,3.824,16.212     c1.234,5.233,2.468,10.465,3.702,15.698c0.637,2.7,0.995,5.597,2.386,8.03c1.854,3.246,6.78,3.246,8.635,0     c1.288-2.254,1.637-4.855,2.228-7.359c1.211-5.133,2.422-10.265,3.633-15.398c1.936-8.207,3.871-16.413,5.807-24.619     c-0.234,0.996-1.678,1.2-0.652,0.958c0.544-0.128,1.088-0.257,1.631-0.385c1.802-0.425,3.604-0.85,5.404-1.275     c5.405-1.274,10.81-2.549,16.214-3.824c5.232-1.234,10.465-2.468,15.698-3.703c2.699-0.637,5.597-0.995,8.029-2.386     c3.245-1.855,3.245-6.779,0-8.635c-2.433-1.391-5.33-1.75-8.029-2.386c-5.233-1.234-10.466-2.469-15.698-3.703     c-5.404-1.275-10.809-2.55-16.214-3.825c-1.801-0.425-3.603-0.85-5.404-1.275c-0.466-0.109-0.931-0.219-1.396-0.329     c-1.103-0.26-0.01-0.118-0.079-0.264C425.879,163.568,417.259,168.646,420.02,174.434z"/></g></g><g><g><path d="M330.071,268.834c1.951,4.091,5.608,4.754,9.51,5.675c5.226,1.232,10.451,2.465,15.677,3.697     c5.798,1.368,11.597,2.736,17.396,4.104c1.902,0.449,3.804,0.897,5.705,1.347c0.558,0.131,2.674,0.862,2.124,0.548     c0-2.878,0-5.757,0-8.635c0.604-0.346-1.186,0.327-1.667,0.44c-1.802,0.425-3.604,0.85-5.405,1.274     c-5.404,1.274-10.809,2.549-16.214,3.823c-5.232,1.234-10.466,2.469-15.699,3.702c-2.836,0.669-7.103,1.026-9.282,3.206     c-2.567,2.568-2.971,5.483-3.762,8.836c-1.261,5.346-2.521,10.691-3.782,16.037c-1.292,5.476-2.583,10.951-3.875,16.427     c-0.448,1.901-0.896,3.803-1.346,5.704c-0.131,0.558-0.862,2.674-0.548,2.124c2.878,0,5.757,0,8.635,0     c0.346,0.604-0.327-1.186-0.44-1.667c-0.425-1.802-0.85-3.603-1.274-5.404c-1.275-5.404-2.55-10.809-3.824-16.213     c-1.234-5.232-2.469-10.465-3.703-15.697c-0.669-2.837-1.027-7.103-3.206-9.282c-2.568-2.567-5.483-2.971-8.837-3.761     c-5.346-1.261-10.691-2.521-16.037-3.782c-5.477-1.292-10.952-2.583-16.429-3.874c-1.901-0.448-3.803-0.897-5.704-1.346     c-0.558-0.131-2.674-0.862-2.124-0.548c0,2.878,0,5.757,0,8.635c-0.604,0.346,1.186-0.327,1.667-0.44     c1.802-0.425,3.604-0.851,5.405-1.275c5.404-1.274,10.809-2.55,16.213-3.824c5.233-1.234,10.466-2.47,15.699-3.704     c2.836-0.669,7.103-1.026,9.282-3.206c2.567-2.568,2.971-5.483,3.762-8.837c1.261-5.346,2.521-10.691,3.782-16.037     c1.292-5.476,2.583-10.952,3.875-16.428c0.448-1.902,0.896-3.803,1.346-5.705c0.131-0.558,0.862-2.674,0.548-2.124     c-2.878,0-5.757,0-8.635,0c-0.361-0.632,0.242,0.824,0.343,1.252c0.4,1.697,0.8,3.394,1.2,5.09     c1.256,5.323,2.512,10.646,3.767,15.97c1.785,7.568,3.57,15.136,5.355,22.704c1.479,6.275,11.122,3.613,9.643-2.658     c-1.861-7.893-3.723-15.785-5.584-23.677c-1.234-5.233-2.469-10.466-3.703-15.699c-0.637-2.699-0.995-5.597-2.386-8.03     c-1.854-3.246-6.78-3.246-8.635,0c-1.289,2.255-1.637,4.855-2.228,7.359c-1.211,5.133-2.421,10.266-3.632,15.398     c-1.936,8.207-3.871,16.414-5.807,24.621c0.234-0.996,1.678-1.2,0.652-0.959c-0.544,0.129-1.088,0.257-1.631,0.385     c-1.802,0.425-3.604,0.851-5.405,1.275c-5.404,1.274-10.809,2.55-16.213,3.824c-5.233,1.234-10.466,2.47-15.699,3.704     c-2.699,0.637-5.597,0.995-8.029,2.386c-3.245,1.855-3.245,6.779,0,8.635c2.254,1.289,4.854,1.637,7.358,2.228     c5.133,1.21,10.266,2.421,15.398,3.631c8.207,1.936,16.414,3.871,24.621,5.806c-0.996-0.234-1.2-1.678-0.959-0.652     c0.129,0.544,0.257,1.088,0.385,1.631c0.425,1.802,0.85,3.603,1.274,5.404c1.275,5.404,2.55,10.809,3.824,16.213     c1.234,5.232,2.469,10.465,3.703,15.697c0.637,2.699,0.995,5.597,2.386,8.029c1.855,3.245,6.779,3.245,8.635,0     c1.289-2.254,1.637-4.854,2.228-7.358c1.211-5.133,2.421-10.265,3.632-15.397c1.936-8.206,3.871-16.412,5.807-24.619     c-0.234,0.996-1.678,1.2-0.652,0.959c0.544-0.128,1.088-0.257,1.631-0.385c1.802-0.425,3.604-0.85,5.405-1.274     c5.404-1.274,10.809-2.549,16.214-3.823c5.232-1.234,10.466-2.469,15.699-3.702c2.699-0.637,5.597-0.995,8.029-2.386     c3.245-1.855,3.245-6.779,0-8.635c-2.433-1.391-5.33-1.749-8.029-2.386c-5.233-1.234-10.467-2.47-15.699-3.704     c-5.405-1.274-10.81-2.55-16.214-3.824c-1.802-0.425-3.604-0.851-5.405-1.275c-0.465-0.109-0.931-0.22-1.396-0.329     c-1.103-0.261-0.01-0.118-0.079-0.264C335.931,257.969,327.31,263.045,330.071,268.834z"/></g></g><g><g><path d="M362.665,423.957c7.539-0.065,15.015-0.904,22.479-1.914c2.987-0.403,5.966-0.879,8.938-1.387     c1.969-0.337,3.483,0.208,1.866-1.376c-0.488-1.179-0.977-2.356-1.465-3.535c-0.124-1.272,1.707-2.229-0.582-0.293     c-0.207,0.175-0.415,0.348-0.622,0.521c-1.053,0.882-2.115,1.752-3.18,2.621c-4.292,3.505-8.669,6.902-13.125,10.197     c-10.655,7.876-22.095,14.415-34.102,20.003c-26.394,12.283-55.471,18.482-84.514,19.07c-45.4,0.92-90.078-13.36-127.025-39.603     c-35.749-25.392-62.916-62.369-77.126-103.773c-14.866-43.315-14.876-90.935-0.844-134.444     c13.462-41.74,40.608-78.772,75.85-104.772c36.281-26.768,80.54-41.024,125.559-41.167c30.336-0.096,60.595,6.549,88.181,19.138     c12.049,5.498,23.179,12.311,33.869,20.095c4.242,3.088,8.395,6.297,12.496,9.567c1.25,0.996,2.491,2.003,3.728,3.016     c0.24,0.197,0.479,0.395,0.718,0.592c1.966,1.628,0.562,1.414,0.709-0.244c0.487-1.179,0.976-2.357,1.464-3.536     c1.337-1.305,1.207-0.843-0.445-1.142c-1.767-0.32-3.539-0.609-5.312-0.893c-6.082-0.971-12.202-1.737-18.34-2.255     c-11.822-0.998-23.737-0.078-35.444,1.67c-22.032,3.29-43.327,11.45-62.255,23.129c-37.646,23.23-64.873,61.467-75.039,104.441     c-10.493,44.358-1.884,92.037,22.937,130.165c24.16,37.112,63.008,63.486,106.293,72.582     C339.603,422.802,351.155,423.908,362.665,423.957c6.45,0.027,6.447-9.973,0-10c-45.319-0.192-88.241-19.657-118.426-53.422     c-30.406-34.013-43.774-80.351-38.21-125.396c5.454-44.151,31.134-84.628,67.645-109.672     c18.423-12.637,39.391-20.999,61.33-25.035c11.578-2.13,23.527-2.854,35.273-2.104c5.775,0.369,11.527,1.126,17.243,2.015     c3.046,0.473,6.55,1.603,9.66,1.561c4.91-0.067,8.859-3.661,6.659-8.73c-1.076-2.478-3.487-4.137-5.532-5.796     c-7.997-6.484-16.215-12.722-24.725-18.518c-22.433-15.278-48.908-25.178-75.416-30.499c-47.727-9.58-97.8-2.744-141.465,18.558     C75.161,96.696,26.029,185.454,33.77,275.511c7.713,89.743,71.492,167.175,157.501,193.161     c49.091,14.833,103.368,11.637,150.47-8.513c21.632-9.255,40.602-22.097,58.608-37.114c2.558-2.133,4.929-5.086,3.954-8.629     c-1.295-4.709-6.691-4.538-10.486-3.83c-10.257,1.913-20.71,3.281-31.152,3.371C356.22,414.013,356.214,424.013,362.665,423.957z     "/></g></g></g></svg>
