<svg fill="#5bffe4" xmlns="http://www.w3.org/2000/svg" xmlns:xlink="http://www.w3.org/1999/xlink" version="1.1" x="0px" y="0px" viewBox="0 0 512 640" enable-background="new 0 0 512 512" xml:space="preserve"><g><g><g><path d="M465.384,201.018c0.962-24.127-10.497-46.367-30.031-60.328c-21.773-15.561-51.382-16.136-74.654-3.714     c2.448,0.996,4.896,1.992,7.345,2.988c-7.632-19.349-22.533-33.945-41.976-41.311c-21.716-8.227-47.089-4.125-65.764,9.316     c2.448,0.996,4.896,1.992,7.345,2.988c-7.088-27.451-30.33-48.241-58.413-52.211c-29.968-4.237-59.856,11.409-73.357,38.498     c1.439-0.826,2.878-1.651,4.317-2.477c-22.755-1.923-45.205,7.048-60.155,24.357c-15.976,18.497-20.627,44.431-12.859,67.497     c0.766-1.882,1.532-3.764,2.298-5.646c-21.688,11.132-36.179,32.156-38.251,56.486c-1.909,22.421,9.172,44.614,26.752,58.171     c13.018,10.039,28.921,15.09,45.31,15.09c5.217,0,10.434,0,15.651,0c57.099,0,114.199,0,171.298,0c28.33,0,56.66,0,84.991,0     c13.301,0,26.844,0.729,40.128-0.235c24.275-1.761,46.531-16.243,57.957-37.705c13.104-24.613,8.408-54.4-9.397-75.299     c-4.188-4.916-11.227,2.193-7.07,7.071c16.73,19.637,18.412,47.251,4.517,68.833c-11.12,17.27-31.506,27.335-51.811,27.335     c-13.486,0-26.974,0-40.46,0c-61.666,0-123.333,0-185,0c-23.085,0-46.17,0-69.256,0c-4.116,0-8.232,0-12.348,0     c-20.164,0-39.487-9.705-51.124-26.248c-9.353-13.296-12.396-30.019-8.718-45.795c4.013-17.214,16.383-31.116,31.877-39.069     c1.898-0.974,2.979-3.624,2.298-5.646c-6.853-20.348-2.954-42.437,11.135-58.749c13.021-15.077,32.605-22.105,52.236-20.447     c1.626,0.137,3.595-1.028,4.317-2.477c11.675-23.426,36.027-36.426,61.973-33.893c24.769,2.418,45.396,21.502,51.52,45.217     c0.753,2.916,4.711,4.884,7.345,2.988c16.205-11.664,36.264-15.078,55.373-9.227c17.048,5.22,31.166,18.74,37.677,35.245     c1.203,3.05,4.271,4.628,7.345,2.988c20.682-11.039,45.317-9.469,64.56,3.714c16.83,11.53,25.881,31.576,25.079,51.693     C455.127,207.468,465.128,207.443,465.384,201.018z"/></g></g><g><g><g><path d="M99.79,330.192c-6.51,16.104-13.019,32.208-19.528,48.313c-2.418,5.982,7.258,8.557,9.643,2.658      c6.51-16.104,13.019-32.208,19.528-48.313C111.851,326.868,102.174,324.294,99.79,330.192L99.79,330.192z"/></g></g><g><g><path d="M153.725,330.192c-6.51,16.104-13.019,32.208-19.528,48.313c-2.418,5.982,7.258,8.557,9.643,2.658      c6.51-16.104,13.019-32.208,19.528-48.313C165.786,326.868,156.109,324.294,153.725,330.192L153.725,330.192z"/></g></g><g><g><path d="M207.66,330.192c-6.51,16.104-13.02,32.208-19.529,48.313c-2.418,5.982,7.258,8.557,9.643,2.658      c6.51-16.104,13.02-32.208,19.529-48.313C219.721,326.868,210.044,324.294,207.66,330.192L207.66,330.192z"/></g></g><g><g><path d="M260.292,330.192c-6.509,16.104-13.019,32.208-19.527,48.313c-2.418,5.982,7.258,8.557,9.643,2.658      c6.509-16.104,13.019-32.208,19.527-48.313C272.353,326.868,262.676,324.294,260.292,330.192L260.292,330.192z"/></g></g><g><g><path d="M314.227,330.192c-6.51,16.104-13.019,32.208-19.528,48.313c-2.418,5.982,7.259,8.557,9.643,2.658      c6.51-16.104,13.019-32.208,19.528-48.313C326.287,326.868,316.61,324.294,314.227,330.192L314.227,330.192z"/></g></g><g><g><path d="M368.161,330.192c-6.509,16.104-13.019,32.208-19.527,48.313c-2.418,5.982,7.259,8.557,9.643,2.658      c6.509-16.104,13.019-32.208,19.527-48.313C380.222,326.868,370.545,324.294,368.161,330.192L368.161,330.192z"/></g></g><g><g><path d="M422.096,330.192c-6.51,16.104-13.02,32.208-19.529,48.313c-2.418,5.982,7.258,8.557,9.643,2.658      c6.51-16.104,13.02-32.208,19.529-48.313C434.156,326.868,424.48,324.294,422.096,330.192L422.096,330.192z"/></g></g><g><g><path d="M108.904,399.351c-6.51,16.104-13.02,32.208-19.529,48.313c-2.418,5.982,7.258,8.557,9.643,2.658      c6.51-16.104,13.02-32.208,19.529-48.313C120.965,396.026,111.289,393.452,108.904,399.351L108.904,399.351z"/></g></g><g><g><path d="M162.839,399.351c-6.51,16.104-13.02,32.208-19.529,48.313c-2.418,5.982,7.258,8.557,9.643,2.658      c6.51-16.104,13.02-32.208,19.529-48.313C174.9,396.026,165.223,393.452,162.839,399.351L162.839,399.351z"/></g></g><g><g><path d="M216.773,399.351c-6.51,16.104-13.019,32.208-19.528,48.313c-2.418,5.982,7.258,8.557,9.643,2.658      c6.51-16.104,13.019-32.208,19.528-48.313C228.834,396.026,219.158,393.452,216.773,399.351L216.773,399.351z"/></g></g><g><g><path d="M269.407,399.351c-6.51,16.104-13.019,32.208-19.528,48.313c-2.418,5.982,7.259,8.557,9.643,2.658      c6.51-16.104,13.019-32.208,19.528-48.313C281.468,396.026,271.791,393.452,269.407,399.351L269.407,399.351z"/></g></g><g><g><path d="M323.342,399.351c-6.51,16.104-13.019,32.208-19.528,48.313c-2.418,5.982,7.259,8.557,9.643,2.658      c6.51-16.104,13.019-32.208,19.528-48.313C335.402,396.026,325.726,393.452,323.342,399.351L323.342,399.351z"/></g></g><g><g><path d="M377.276,399.351c-6.51,16.104-13.019,32.208-19.528,48.313c-2.418,5.982,7.259,8.557,9.643,2.658      c6.51-16.104,13.019-32.208,19.528-48.313C389.337,396.026,379.66,393.452,377.276,399.351L377.276,399.351z"/></g></g></g></g></svg>
