<svg fill="#5bffe4" xmlns="http://www.w3.org/2000/svg" xmlns:xlink="http://www.w3.org/1999/xlink" version="1.1" x="0px" y="0px" viewBox="0 0 512 640" enable-background="new 0 0 512 512" xml:space="preserve"><metadata><?xpacket begin="&#65279;" id="W5M0MpCehiHzreSzNTczkc9d"?><x:xmpmeta xmlns:x="adobe:ns:meta/" x:xmptk="Adobe XMP Core 5.3-c011 66.145661, 2012/02/06-14:56:27        "/><?xpacket end="w"?></metadata><g><g><path d="M336.106,401.744c-1.458,0-2.91-0.454-4.136-1.352L256,344.78l-75.97,55.612c-2.238,1.638-5.232,1.8-7.635,0.414    c-2.402-1.388-3.759-4.062-3.459-6.819l10.179-93.597l-86.149-37.985c-2.538-1.119-4.176-3.632-4.176-6.405    c0-2.774,1.638-5.286,4.176-6.405l86.149-37.985l-10.179-93.597c-0.3-2.758,1.057-5.432,3.459-6.819    c2.402-1.386,5.396-1.225,7.635,0.414L256,167.22l75.971-55.612c2.237-1.638,5.231-1.802,7.635-0.414    c2.402,1.387,3.759,4.062,3.459,6.819l-10.181,93.597l86.15,37.985c2.538,1.119,4.176,3.631,4.176,6.405    c0,2.773-1.638,5.286-4.176,6.405l-86.15,37.985l10.181,93.597c0.3,2.758-1.057,5.432-3.459,6.819    C338.519,401.434,337.311,401.744,336.106,401.744z M113.141,256l76.312,33.647c2.792,1.231,4.465,4.129,4.135,7.162    l-9.017,82.909l67.295-49.262c2.463-1.803,5.808-1.802,8.27,0l67.295,49.262l-9.018-82.909c-0.33-3.033,1.343-5.931,4.135-7.162    L398.859,256l-76.313-33.647c-2.792-1.231-4.465-4.129-4.135-7.162l9.018-82.908l-67.295,49.261c-2.462,1.801-5.807,1.802-8.27,0    l-67.295-49.262l9.017,82.909c0.33,3.033-1.343,5.931-4.135,7.162L113.141,256z"/></g><g><g><path d="M255.541,74.599c-1.717,0-3.437-0.627-4.788-1.895c-2.82-2.645-2.961-7.075-0.316-9.895l32.819-34.985     c2.646-2.819,7.076-2.96,9.895-0.316c2.819,2.645,2.961,7.075,0.316,9.895l-32.819,34.985     C259.27,73.856,257.407,74.599,255.541,74.599z"/></g><g><path d="M255.543,74.599c-1.867,0-3.729-0.742-5.107-2.211l-31.903-34.009c-2.645-2.819-2.503-7.25,0.316-9.895     c2.819-2.646,7.249-2.503,9.895,0.316l31.903,34.009c2.645,2.819,2.503,7.25-0.316,9.895     C258.98,73.971,257.26,74.599,255.543,74.599z"/></g><g><path d="M255.542,498.391c-3.866,0-7-3.134-7-7V20.609c0-3.866,3.134-7,7-7s7,3.134,7,7v470.781     C262.542,495.257,259.408,498.391,255.542,498.391z"/></g><g><path d="M288.362,486.387c-1.866,0-3.729-0.742-5.106-2.211l-32.819-34.985c-2.645-2.819-2.503-7.249,0.316-9.895     c2.819-2.645,7.25-2.503,9.895,0.316l32.819,34.985c2.645,2.819,2.503,7.249-0.316,9.895     C291.8,485.759,290.079,486.387,288.362,486.387z"/></g><g><path d="M223.637,485.41c-1.717,0-3.437-0.628-4.788-1.895c-2.82-2.646-2.961-7.075-0.316-9.895l31.903-34.009     c2.644-2.819,7.074-2.961,9.895-0.316c2.819,2.646,2.961,7.075,0.316,9.895l-31.903,34.009     C227.366,484.668,225.504,485.41,223.637,485.41z"/></g></g><g><g><path d="M92.185,169.442c-3.005,0-5.783-1.95-6.698-4.975l-13.888-45.915c-1.119-3.701,0.973-7.608,4.673-8.727     c3.702-1.12,7.608,0.973,8.727,4.673l13.888,45.915c1.119,3.701-0.973,7.608-4.673,8.727     C93.538,169.344,92.855,169.442,92.185,169.442z"/></g><g><path d="M46.777,180.065c-3.178,0-6.055-2.179-6.81-5.407c-0.881-3.764,1.457-7.53,5.221-8.411l45.404-10.624     c3.762-0.882,7.53,1.457,8.411,5.221s-1.457,7.53-5.221,8.411l-45.404,10.624C47.842,180.005,47.305,180.065,46.777,180.065z"/></g><g><path d="M459.196,381.338c-1.188,0-2.391-0.303-3.493-0.938L47.994,145.007c-3.348-1.933-4.495-6.214-2.562-9.562     s6.215-4.495,9.562-2.562l407.709,235.391c3.348,1.934,4.495,6.215,2.563,9.563C463.969,380.082,461.616,381.338,459.196,381.338     z"/></g><g><path d="M418.503,357.844c-3.179,0-6.055-2.179-6.81-5.407c-0.881-3.764,1.456-7.529,5.221-8.41l46.708-10.93     c3.77-0.884,7.53,1.457,8.41,5.221c0.881,3.764-1.456,7.529-5.221,8.41l-46.708,10.93     C419.567,357.783,419.03,357.844,418.503,357.844z"/></g><g><path d="M432.008,402.478c-3.005,0-5.782-1.95-6.697-4.976l-13.502-44.634c-1.119-3.7,0.973-7.607,4.674-8.727     c3.693-1.116,7.606,0.972,8.727,4.674l13.502,44.634c1.119,3.7-0.973,7.607-4.674,8.727     C433.362,402.38,432.68,402.478,432.008,402.478z"/></g></g><g><g><path d="M93.496,357.845c-0.528,0-1.064-0.061-1.601-0.187l-46.707-10.93c-3.765-0.881-6.102-4.646-5.221-8.41     c0.881-3.765,4.647-6.103,8.411-5.221l46.707,10.93c3.765,0.881,6.102,4.646,5.221,8.41     C99.551,355.666,96.674,357.845,93.496,357.845z"/></g><g><path d="M79.992,402.478c-0.671,0-1.354-0.098-2.029-0.302c-3.7-1.119-5.792-5.026-4.673-8.727l13.5-44.633     c1.119-3.701,5.024-5.791,8.727-4.674c3.7,1.119,5.792,5.026,4.673,8.727l-13.5,44.633     C85.775,400.527,82.997,402.478,79.992,402.478z"/></g><g><path d="M52.803,381.337c-2.419,0-4.772-1.255-6.068-3.501c-1.933-3.348-0.786-7.629,2.562-9.563l407.709-235.39     c3.35-1.934,7.629-0.786,9.563,2.562c1.933,3.348,0.785,7.629-2.563,9.562L56.297,380.398     C55.195,381.034,53.991,381.337,52.803,381.337z"/></g><g><path d="M419.816,169.442c-0.672,0-1.354-0.097-2.029-0.302c-3.7-1.119-5.793-5.026-4.674-8.727l13.888-45.915     c1.119-3.702,5.028-5.794,8.727-4.674c3.7,1.119,5.793,5.026,4.674,8.727l-13.888,45.915     C425.599,167.491,422.82,169.442,419.816,169.442z"/></g><g><path d="M465.223,180.066c-0.528,0-1.064-0.06-1.601-0.186l-45.403-10.625c-3.765-0.881-6.102-4.646-5.221-8.411     c0.881-3.765,4.652-6.099,8.41-5.221l45.403,10.625c3.765,0.881,6.102,4.646,5.221,8.411     C471.277,177.887,468.4,180.066,465.223,180.066z"/></g></g></g></svg>
