<svg xmlns="http://www.w3.org/2000/svg" xmlns:xlink="http://www.w3.org/1999/xlink" version="1.1" x="0px" y="0px" viewBox="0 0 512 640" enable-background="new 0 0 512 512" xml:space="preserve"><g><g><g><path d="M352.801,255.998c-0.31,45.866-32.784,85.429-77.612,94.914c-44.71,9.461-91.255-15.89-108.677-57.839     c-17.65-42.501-1.933-92.502,36.183-117.897c38.405-25.587,90.508-19.273,122.67,13.301     C343.048,206.387,352.632,230.951,352.801,255.998c0.044,6.446,10.044,6.45,10,0c-0.307-45.445-29.268-85.821-72.032-101.002     c-42.885-15.224-92.262,0.341-119.675,36.272c-27.727,36.341-28.899,87.569-3.087,125.252     c25.807,37.675,73.905,54.456,117.677,42.104c45.416-12.817,76.802-55.828,77.118-102.625     C362.845,249.547,352.845,249.552,352.801,255.998z"/></g></g><g><g><g><path d="M251.001,38.541c0,24.518,0,49.035,0,73.552c0,6.449,10,6.449,10,0c0-24.518,0-49.035,0-73.552      C261.001,32.092,251.001,32.092,251.001,38.541L251.001,38.541z"/></g></g><g><g><path d="M251.001,399.903c0,24.519,0,49.037,0,73.556c0,6.448,10,6.448,10,0c0-24.519,0-49.037,0-73.556      C261.001,393.455,251.001,393.455,251.001,399.903L251.001,399.903z"/></g></g></g><g><g><g><path d="M406.225,98.699c-17.334,17.336-34.668,34.672-52.001,52.008c-4.563,4.564,2.507,11.635,7.07,7.071      c17.334-17.336,34.668-34.672,52.001-52.008C417.858,101.206,410.788,94.135,406.225,98.699L406.225,98.699z"/></g></g><g><g><path d="M150.705,354.217c-17.335,17.336-34.671,34.672-52.007,52.009c-4.563,4.563,2.508,11.635,7.071,7.07      c17.335-17.336,34.671-34.672,52.007-52.009C162.34,356.724,155.269,349.652,150.705,354.217L150.705,354.217z"/></g></g></g><g><g><g><path d="M413.301,406.226c-17.335-17.335-34.671-34.669-52.007-52.003c-4.563-4.563-11.635,2.507-7.07,7.07      c17.335,17.335,34.671,34.669,52.007,52.003C410.794,417.859,417.865,410.789,413.301,406.226L413.301,406.226z"/></g></g><g><g><path d="M157.776,150.706c-17.336-17.335-34.673-34.671-52.009-52.007c-4.564-4.563-11.635,2.508-7.071,7.071      c17.336,17.335,34.673,34.671,52.009,52.007C155.269,162.34,162.34,155.269,157.776,150.706L157.776,150.706z"/></g></g></g><g><g><g><path d="M473.458,250.998c-24.518,0-49.036,0-73.554,0c-6.448,0-6.448,10,0,10c24.518,0,49.036,0,73.554,0      C479.906,260.998,479.906,250.998,473.458,250.998L473.458,250.998z"/></g></g><g><g><path d="M112.093,250.998c-24.517,0-49.034,0-73.551,0c-6.449,0-6.449,10,0,10c24.517,0,49.034,0,73.551,0      C118.542,260.998,118.542,250.998,112.093,250.998L112.093,250.998z"/></g></g></g></g><text x="0" y="527" fill="#000000" font-size="5px" font-weight="bold" font-family="'Helvetica Neue', Helvetica, Arial-Unicode, Arial, Sans-serif">by Muhammad Nur Auliady Pamungkas</text><text x="0" y="532" fill="#000000" font-size="5px" font-weight="bold" font-family="'Helvetica Neue', Helvetica, Arial-Unicode, Arial, Sans-serif">from the Noun Project</text></svg>