<svg fill="#5bffe4" xmlns="http://www.w3.org/2000/svg" xmlns:xlink="http://www.w3.org/1999/xlink" version="1.1" x="0px" y="0px" viewBox="0 0 512 640" enable-background="new 0 0 512 512" xml:space="preserve"><metadata><?xpacket begin="&#65279;" id="W5M0MpCehiHzreSzNTczkc9d"?><x:xmpmeta xmlns:x="adobe:ns:meta/" x:xmptk="Adobe XMP Core 5.3-c011 66.145661, 2012/02/06-14:56:27        "/><?xpacket end="w"?></metadata><g><g><g><path d="M166.36,221.83c-18.395,0-35.506-7.518-47.858-20.828c-7.574,4.249-16.067,6.468-24.902,6.468     c-25.007,0-46.396-18.506-50.367-42.817c-15.791-8.771-25.793-25.544-25.793-43.783c0-24.832,18.193-45.68,42.238-49.448     c8.75-23.831,31.708-40.092,57.412-40.092c14.214,0,27.675,4.808,38.532,13.655c8.682-6.321,19.119-9.745,29.988-9.745     c12.445,0,24.128,4.392,33.401,12.463c7.919-3.29,16.303-4.953,24.989-4.953c30.406,0,56.355,20.602,63.48,49.658     c18.336,4.268,33.12,18.148,38.388,36.5c1.066,3.716-1.081,7.593-4.797,8.66c-3.723,1.065-7.594-1.082-8.66-4.797     c-4.2-14.635-16.664-25.387-31.753-27.392c-3.048-0.405-5.476-2.751-5.982-5.785C290.524,74.769,269.213,56.75,244,56.75     c-8.155,0-15.969,1.865-23.225,5.543c-2.763,1.402-6.121,0.819-8.25-1.434c-7.087-7.493-16.646-11.62-26.915-11.62     c-9.467,0-18.484,3.582-25.391,10.086c-2.758,2.597-7.081,2.529-9.756-0.154c-8.898-8.926-20.75-13.842-33.373-13.842     c-21.066,0-39.739,14.164-45.408,34.445c-0.805,2.879-3.349,4.929-6.333,5.104c-19.014,1.111-33.908,16.92-33.908,35.992     c0,14.109,8.312,27.002,21.176,32.847c2.311,1.05,3.873,3.269,4.081,5.799c1.566,19.04,17.776,33.954,36.903,33.954     c8.034,0,15.676-2.527,22.102-7.307c3.077-2.29,7.422-1.677,9.746,1.373c9.829,12.897,24.741,20.293,40.913,20.293     c2.21,0,4.411-0.142,6.541-0.42c3.832-0.5,7.348,2.197,7.85,6.031c0.502,3.833-2.197,7.348-6.031,7.85     C171.989,221.648,169.177,221.83,166.36,221.83z"/></g><g><path d="M314.29,308.79c-7.888,0-15.603-1.408-22.931-4.185c-3.615-1.37-5.436-5.411-4.065-9.026     c1.369-3.616,5.41-5.438,9.026-4.065c5.737,2.174,11.783,3.276,17.97,3.276c12.596,0,24.692-4.637,34.062-13.057     c2.354-2.115,5.837-2.39,8.492-0.663c8.267,5.371,17.854,8.21,27.727,8.21c15.719,0,30.323-7.101,40.069-19.48     c1.759-2.234,4.696-3.186,7.43-2.398c3.422,0.981,6.945,1.479,10.471,1.479c20.964,0,38.02-17.056,38.02-38.02     c0-18.981-14.161-35.171-32.939-37.661c-3.049-0.404-5.477-2.751-5.984-5.785c-4.119-24.629-25.259-42.504-50.266-42.504     c-8.075,0-15.822,1.852-23.025,5.503c-2.765,1.4-6.123,0.817-8.252-1.436c-5.795-6.131-13.56-10.107-21.864-11.198     c-1.603-0.213-3.223-0.32-4.828-0.32c-9.377,0-18.313,3.55-25.162,9.997c-2.757,2.595-7.079,2.528-9.753-0.152     c-8.832-8.851-20.586-13.725-33.096-13.725c-20.892,0-39.408,14.045-45.028,34.154c-0.804,2.878-3.347,4.928-6.331,5.104     c-18.853,1.11-33.621,16.783-33.621,35.682c0,1.673,0.111,3.303,0.33,4.845c1.641,12.068,9.557,22.67,20.663,27.711     c2.312,1.049,3.874,3.267,4.083,5.797c0.96,11.614,7.483,22.188,17.448,28.286c3.297,2.018,4.335,6.327,2.317,9.624     c-2.018,3.297-6.326,4.336-9.625,2.317c-12.611-7.717-21.229-20.632-23.602-35.089c-13.552-7.555-23.053-21.293-25.15-36.718     c-0.306-2.15-0.464-4.443-0.464-6.773c0-24.657,18.066-45.369,41.948-49.134c8.699-23.662,31.5-39.806,57.032-39.806     c14.102,0,27.465,4.768,38.252,13.54c8.621-6.267,18.978-9.66,29.759-9.66c2.221,0,4.462,0.148,6.662,0.441     c9.789,1.285,19.037,5.471,26.509,11.927c7.866-3.266,16.187-4.918,24.799-4.918c30.199,0,55.977,20.462,63.069,49.32     c23.193,5.425,40.12,26.362,40.12,50.63c0,28.684-23.336,52.02-52.02,52.02c-3.297,0-6.589-0.316-9.834-0.944     c-12.319,13.62-29.619,21.345-48.136,21.345c-10.841,0-21.413-2.686-30.873-7.808C342.408,304.094,328.602,308.79,314.29,308.79z     "/></g><g><path d="M56.854,297.679c-0.637,0-1.284-0.088-1.926-0.271c-3.717-1.062-5.87-4.937-4.808-8.653l12.393-43.379     c1.062-3.718,4.936-5.875,8.653-4.808c3.717,1.062,5.87,4.936,4.808,8.653L63.581,292.6     C62.703,295.674,59.899,297.679,56.854,297.679z"/></g><g><path d="M130.336,297.679c-0.637,0-1.284-0.088-1.927-0.271c-3.717-1.063-5.87-4.937-4.807-8.653l12.396-43.379     c1.062-3.717,4.934-5.871,8.654-4.807c3.717,1.062,5.87,4.937,4.807,8.654L137.063,292.6     C136.185,295.675,133.382,297.679,130.336,297.679z"/></g><g><path d="M56.854,387.981c-0.637,0-1.284-0.088-1.926-0.271c-3.717-1.062-5.87-4.937-4.808-8.653l12.393-43.38     c1.062-3.718,4.936-5.87,8.654-4.808c3.717,1.062,5.87,4.937,4.808,8.653l-12.393,43.38     C62.703,385.978,59.9,387.981,56.854,387.981z"/></g><g><path d="M130.336,387.981c-0.637,0-1.284-0.088-1.927-0.271c-3.717-1.063-5.87-4.937-4.807-8.653l12.396-43.38     c1.062-3.719,4.934-5.87,8.654-4.808c3.717,1.063,5.87,4.937,4.807,8.653l-12.396,43.38     C136.185,385.978,133.382,387.981,130.336,387.981z"/></g><g><path d="M130.478,387.981c-0.637,0-1.284-0.088-1.927-0.271c-3.717-1.062-5.87-4.937-4.807-8.653l12.395-43.38     c1.062-3.719,4.934-5.87,8.654-4.808c3.717,1.062,5.87,4.937,4.807,8.653l-12.395,43.38     C136.327,385.978,133.524,387.981,130.478,387.981z"/></g><g><path d="M203.959,387.981c-0.637,0-1.284-0.088-1.927-0.271c-3.717-1.063-5.87-4.937-4.807-8.653l12.396-43.38     c1.062-3.719,4.937-5.87,8.654-4.808c3.717,1.063,5.87,4.937,4.807,8.653l-12.396,43.38     C209.808,385.978,207.005,387.981,203.959,387.981z"/></g><g><path d="M277.443,387.981c-0.638,0-1.284-0.088-1.927-0.271c-3.718-1.062-5.87-4.937-4.808-8.653l12.394-43.38     c1.062-3.718,4.941-5.869,8.653-4.808c3.718,1.062,5.87,4.937,4.808,8.653l-12.394,43.38     C283.292,385.977,280.489,387.981,277.443,387.981z"/></g><g><path d="M277.584,387.981c-0.638,0-1.284-0.088-1.927-0.271c-3.718-1.063-5.87-4.937-4.808-8.653l12.396-43.38     c1.062-3.72,4.939-5.869,8.653-4.808c3.718,1.063,5.87,4.937,4.808,8.653l-12.396,43.38     C283.433,385.978,280.63,387.981,277.584,387.981z"/></g><g><path d="M351.068,387.981c-0.637,0-1.284-0.088-1.927-0.271c-3.717-1.062-5.87-4.936-4.808-8.653l12.392-43.38     c1.062-3.718,4.937-5.87,8.653-4.808c3.717,1.062,5.87,4.936,4.808,8.653l-12.392,43.38     C356.917,385.977,354.114,387.981,351.068,387.981z"/></g><g><path d="M351.068,387.981c-0.637,0-1.284-0.088-1.927-0.271c-3.717-1.062-5.87-4.936-4.808-8.653l12.392-43.38     c1.062-3.718,4.937-5.87,8.653-4.808c3.717,1.062,5.87,4.936,4.808,8.653l-12.392,43.38     C356.917,385.977,354.114,387.981,351.068,387.981z"/></g><g><path d="M424.691,387.981c-0.638,0-1.284-0.088-1.927-0.271c-3.718-1.063-5.87-4.937-4.808-8.653l12.396-43.38     c1.062-3.72,4.939-5.869,8.653-4.808c3.718,1.063,5.87,4.937,4.808,8.653l-12.396,43.38     C430.54,385.978,427.737,387.981,424.691,387.981z"/></g><g><path d="M51.032,480.674c-0.637,0-1.284-0.088-1.926-0.271c-3.717-1.062-5.87-4.937-4.808-8.653l12.394-43.38     c1.061-3.718,4.937-5.87,8.653-4.808c3.717,1.062,5.87,4.937,4.808,8.653l-12.394,43.38     C56.881,478.669,54.078,480.674,51.032,480.674z"/></g><g><path d="M124.514,480.674c-0.637,0-1.284-0.088-1.927-0.271c-3.717-1.063-5.87-4.937-4.807-8.653l12.396-43.38     c1.062-3.719,4.935-5.87,8.654-4.808c3.717,1.063,5.87,4.937,4.807,8.653l-12.396,43.38     C130.362,478.67,127.56,480.674,124.514,480.674z"/></g><g><path d="M124.656,480.674c-0.637,0-1.284-0.088-1.927-0.271c-3.717-1.063-5.87-4.937-4.807-8.653l12.396-43.38     c1.062-3.719,4.934-5.87,8.654-4.808c3.717,1.063,5.87,4.937,4.807,8.653l-12.396,43.38     C130.505,478.67,127.702,480.674,124.656,480.674z"/></g><g><path d="M198.138,480.674c-0.637,0-1.284-0.088-1.927-0.271c-3.717-1.063-5.87-4.937-4.807-8.653l12.396-43.38     c1.062-3.719,4.935-5.87,8.654-4.808c3.717,1.063,5.87,4.937,4.807,8.653l-12.396,43.38     C203.987,478.67,201.184,480.674,198.138,480.674z"/></g><g><path d="M271.621,480.674c-0.638,0-1.284-0.088-1.927-0.271c-3.718-1.062-5.87-4.937-4.808-8.653l12.394-43.38     c1.062-3.719,4.939-5.868,8.653-4.808c3.718,1.062,5.87,4.937,4.808,8.653l-12.394,43.38     C277.47,478.669,274.667,480.674,271.621,480.674z"/></g><g><path d="M271.763,480.674c-0.638,0-1.284-0.088-1.927-0.271c-3.718-1.063-5.87-4.937-4.808-8.653l12.396-43.38     c1.062-3.72,4.939-5.868,8.653-4.808c3.718,1.063,5.87,4.937,4.808,8.653l-12.396,43.38     C277.611,478.67,274.809,480.674,271.763,480.674z"/></g><g><path d="M345.247,480.674c-0.638,0-1.284-0.088-1.927-0.271c-3.718-1.062-5.87-4.937-4.808-8.653l12.394-43.38     c1.062-3.719,4.94-5.868,8.653-4.808c3.718,1.062,5.87,4.937,4.808,8.653l-12.394,43.38     C351.096,478.669,348.293,480.674,345.247,480.674z"/></g><g><path d="M345.247,480.674c-0.638,0-1.284-0.088-1.927-0.271c-3.718-1.062-5.87-4.937-4.808-8.653l12.394-43.38     c1.062-3.719,4.94-5.868,8.653-4.808c3.718,1.062,5.87,4.937,4.808,8.653l-12.394,43.38     C351.096,478.669,348.293,480.674,345.247,480.674z"/></g><g><path d="M418.872,480.674c-0.637,0-1.284-0.088-1.927-0.271c-3.717-1.062-5.87-4.936-4.808-8.653l12.392-43.38     c1.062-3.718,4.937-5.87,8.653-4.808c3.717,1.062,5.87,4.936,4.808,8.653l-12.392,43.38     C424.721,478.669,421.918,480.674,418.872,480.674z"/></g></g><g><path d="M244.548,372.548c-0.97,0-1.951-0.202-2.881-0.622c-3.019-1.365-4.668-4.66-3.95-7.896l13.213-59.534l-38.927-8.64    c-2.306-0.512-4.199-2.152-5.033-4.362c-0.834-2.211-0.497-4.692,0.896-6.6l68.976-94.449c1.955-2.676,5.518-3.616,8.537-2.25    c3.02,1.365,4.668,4.66,3.95,7.895l-13.213,59.534l38.925,8.638c2.306,0.512,4.198,2.152,5.032,4.362s0.497,4.692-0.896,6.6    l-68.975,94.451C248.852,371.527,246.728,372.548,244.548,372.548z M225.485,284.508l35.312,7.837    c3.774,0.838,6.154,4.576,5.317,8.351l-7.479,33.694l42.925-58.779l-35.311-7.835c-1.813-0.402-3.391-1.508-4.388-3.074    s-1.332-3.464-0.93-5.276l7.479-33.696L225.485,284.508z"/></g></g></svg>
