<svg fill="#5bffe4" xmlns="http://www.w3.org/2000/svg" xmlns:xlink="http://www.w3.org/1999/xlink" version="1.1" x="0px" y="0px" viewBox="0 0 512 640" enable-background="new 0 0 512 512" xml:space="preserve"><g><g><g><path d="M364.836,63.87c-0.263-1.27,0.04-2.313,0.838-3.239c-0.644,0.747,1.01-0.659,0.061-0.023     c-0.908,0.608-1.225,0.661-1.556,0.787c-2.49,0.951-5.131,1.53-7.731,2.085c-8.827,1.881-17.867,2.785-26.842,3.62     c-28.433,2.647-57.078,3.298-85.621,3.319c-28.098,0.021-56.266-0.738-84.265-3.197c-9.168-0.805-18.354-1.792-27.391-3.577     c-2.714-0.537-5.415-1.182-8.037-2.07c-1.222-0.414-0.508-0.094-1.748-0.779c-0.313-0.173-1.141-0.896-0.055,0.027     c0.134,0.114,0.881,1.898,0.644,3.048c1.301-6.293-8.337-8.972-9.643-2.658c-2.508,12.129,21.934,13.19,28.992,14.126     c25.285,3.353,50.914,4.304,76.39,4.833c30.578,0.635,61.221,0.219,91.753-1.636c11.277-0.685,22.552-1.61,33.761-3.052     c7.172-0.923,14.509-1.872,21.42-4.087c4.762-1.527,9.877-4.355,8.672-10.185C373.174,54.898,363.535,57.577,364.836,63.87     L364.836,63.87z"/></g></g><g><g><path d="M360.747,153.841c-7.155,9.312-13.73,19.207-18.102,30.161c-4.164,10.438-5.313,20.793-4.319,31.948     c1.938,21.738,10.497,42.209,19.165,61.993c14.781,33.741,22.847,70.573,14.532,107.244c-1.424,6.279,8.217,8.946,9.643,2.658     c7.947-35.049,2.617-72.636-11.411-105.498c-8.11-18.998-16.771-37.705-20.729-58.124c-2.147-11.078-2.423-22.2,1.058-33.004     c3.817-11.848,11.286-22.555,18.798-32.331C373.312,153.773,364.618,148.803,360.747,153.841L360.747,153.841z"/></g></g><g><g><path d="M65.205,62.541C64.958,70.667,65,78.783,65.372,86.904c0.317,6.91,1.852,13.995,1.852,20.873c0,6.449,10,6.449,10,0     c0-6.867-1.489-13.978-1.852-20.873c-0.426-8.113-0.414-16.245-0.167-24.363C75.401,56.089,65.401,56.108,65.205,62.541     L65.205,62.541z"/></g></g><g><g><path d="M124.539,231.726c16.151,17.681,34.569,32.767,53.071,47.875c16.918,13.815,32.25,29.327,46.23,46.116     c4.131,4.961,11.166-2.153,7.071-7.07c-13.986-16.796-29.326-32.276-46.23-46.116c-18.487-15.136-36.916-30.19-53.071-47.876     C127.252,219.884,120.2,226.976,124.539,231.726L124.539,231.726z"/></g></g><g><g><path d="M234.252,339.063c15.709,21.629,28.207,45.2,35.762,70.893c4.718,16.04,6.736,32.512,9.955,48.86     c1.808,9.182,5.527,22.841,16.048,25.734c3.046,0.838,6.226-1.737,8.736-3.099c3.123-1.692,6.183-3.5,9.215-5.349     c6.006-3.661,11.787-7.71,17.32-12.051c9.52-7.468,18.187-15.853,25.699-25.347c8.737-11.042,15.526-23.305,20.405-36.505     c2.24-6.062-7.427-8.652-9.643-2.658c-12.771,34.552-40.915,59.195-72.928,75.869c1.683,0,3.364,0,5.047,0     c-5.543-2.65-7.51-7.848-9.175-14.379c-2.535-9.944-3.621-20.261-5.511-30.338c-6.61-35.248-21.238-67.684-42.297-96.679     C239.137,328.854,230.456,333.836,234.252,339.063L234.252,339.063z"/></g></g><g><g><path d="M69.71,123.428c6.741,34.45,21.31,66.203,42.76,93.942c3.94,5.095,10.963-2.038,7.071-7.071     c-20.369-26.34-33.802-56.892-40.188-89.529C78.115,114.444,68.478,117.129,69.71,123.428L69.71,123.428z"/></g></g><g><g><path d="M380.701,145.543c8.004-8.767,16.462-17.083,25.181-25.135c8.143-7.521,16.991-14.416,24.404-22.679     c8.435-9.403,16.294-22.139,16.682-35.188c0.191-6.452-9.809-6.434-10,0c-0.078,2.638-0.959,6.064-2.254,9.662     c-2.845,7.907-8.136,14.894-13.805,20.975c-6.767,7.258-14.793,13.451-22.099,20.159c-8.739,8.024-17.18,16.372-25.18,25.135     C369.293,143.223,376.345,150.315,380.701,145.543L380.701,145.543z"/></g></g><g><g><path d="M243.986,70.419c-28.555-0.021-57.171-0.747-85.621-3.319c-8.987-0.813-17.994-1.806-26.841-3.62     c-2.615-0.537-5.218-1.182-7.732-2.085c-0.35-0.125-0.609-0.213-1.556-0.787c-0.987-0.598,0.771,0.721,0.061,0.023     c1.114,1.093,0.763,3.674,0.537,4.047c-0.452,0.75-1.16,1.002,0.177,0.285c0.892-0.479,0.591-0.3,1.988-0.765     c3.005-1.001,6.144-1.619,9.25-2.205c9.395-1.772,18.961-2.66,28.479-3.468c28.961-2.458,58.104-3.034,87.157-2.924     c26.951,0.103,53.967,0.921,80.812,3.408c8.549,0.792,17.107,1.764,25.527,3.473c2.634,0.535,5.255,1.179,7.792,2.073     c0.364,0.128,0.658,0.223,1.607,0.78c1.01,0.592-0.765-0.717-0.024-0.027c-0.771-0.718-1.181-2.634-0.406-4.05     c0.402-0.734,1.261-1.031-0.105-0.277c-0.884,0.488-0.53,0.295-1.938,0.772c-2.71,0.918-5.537,1.501-8.339,2.055     c-8.756,1.729-17.681,2.61-26.56,3.413C300.261,69.753,272.078,70.397,243.986,70.419c-6.448,0.005-6.449,10.005,0,10     c28.555-0.021,57.171-0.747,85.621-3.319c9.319-0.843,18.664-1.896,27.861-3.648c4.962-0.945,10.889-1.992,14.859-5.368     c4.229-3.596,2.231-9.102-1.975-11.569c-4.886-2.867-11.207-3.71-16.683-4.641c-23.064-3.919-46.731-4.875-70.069-5.657     c-31.004-1.04-62.082-0.865-93.071,0.545c-20.926,0.952-42.461,1.908-62.989,6.411c-4.657,1.021-10.169,2.282-13.197,6.267     c-3.314,4.363,0.715,9.006,4.671,10.73c5.97,2.602,12.572,3.582,18.966,4.542c10.517,1.58,21.125,2.534,31.728,3.313     c24.706,1.814,49.51,2.375,74.276,2.394C250.435,80.424,250.435,70.424,243.986,70.419z"/><path d="M256.088,27.271c-30.072,0.025-60.153,1.111-90.111,3.789c-22.198,1.984-44.558,4.684-66.244,9.953     c-10.887,2.645-25.599,5.916-32.641,15.542c-6.501,8.887,3.863,16.949,11.027,20.329c15.407,7.267,33.092,10.041,49.773,12.603     c26.171,4.021,52.642,6.058,79.079,7.258c58.221,2.643,117.376,1.497,175.121-6.928c10.075-1.47,77.358-9.493,63.197-32.951     c-5.899-9.771-21.783-13.052-31.847-15.604c-21.436-5.436-43.674-7.999-65.648-10.056     C317.324,28.353,286.684,27.296,256.088,27.271c-6.449-0.005-6.448,9.995,0,10c30.072,0.025,60.152,1.111,90.11,3.789     c21.991,1.966,44.137,4.658,65.573,10.095c6.467,1.64,13.026,3.526,19.003,6.541c1.869,0.943,3.883,2.245,4.813,3.076     c0.321,0.287,0.614,0.601,0.906,0.917c0.902,0.976-0.531-0.814,0.162,0.224c0.287,0.43,0.367,0.978,0.304,0.311     c0.075,0.797,0.006,0.473,0.168,0.095c-0.459,1.07-0.631,1.077-0.712,1.17c-1.45,1.649-2.52,2.196-4.739,3.427     c-5.702,3.163-12.184,4.958-18.443,6.635c-21.184,5.675-43.25,8.239-65.033,10.29c-29.95,2.82-60.066,3.894-90.142,3.97     c-30.186,0.076-60.399-1.018-90.474-3.644c-22.197-1.938-44.535-4.612-66.193-9.988c-6.594-1.637-13.292-3.516-19.418-6.503     c-1.718-0.837-4.314-2.444-5.045-3.061c-0.341-0.289-1.881-2.065-1.2-1.134c-0.959-1.311-0.282,0.156-0.609-1.314     c0.106,0.479-0.053,0.863,0.161,0.117c-0.165,0.576,0.595-0.862,0.138-0.288c1.448-1.82,2.252-2.189,4.372-3.428     c5.448-3.183,11.705-4.98,17.743-6.653c20.71-5.736,42.353-8.32,63.685-10.409c29.567-2.896,59.307-4.045,89.007-4.22     c1.955-0.011,3.909-0.013,5.864-0.015C262.537,37.265,262.537,27.265,256.088,27.271z"/></g></g><g><g><path d="M365.064,151.364c-24.95,0-49.9,0-74.852,0c-4.663,0-9.326,0-13.989,0c-0.893,0-1.756,0.118-2.585-0.298     c-2.538-1.274-0.086-4.059,1.915-4.059c10.879,0,21.758,0,32.636,0c22.992,0,45.984,0,68.977,0c6.448,0,6.448-10,0-10     c-24.539,0-49.079,0-73.618,0c-9.601,0-19.2,0-28.801,0c-10.029,0-16.003,12.867-8.935,20.337     c3.616,3.822,7.842,4.019,12.62,4.019c28.877,0,57.755,0,86.632,0C371.513,161.364,371.513,151.364,365.064,151.364     L365.064,151.364z"/></g></g><g><g><path d="M128.075,233.19c24.848,0,49.695,0,74.543,0c5.387,0,10.774,0,16.162,0c4.722,0,8.896-0.244,12.46-4.019     c6.992-7.404,1.181-20.337-8.834-20.337c-2.844,0-5.689,0-8.533,0c-32.622,0-65.245,0-97.867,0c-6.449,0-6.449,10,0,10     c24.27,0,48.54,0,72.81,0c10.835,0,21.67,0,32.504,0c3.522,0,3.71,4.356,0.106,4.356c-4.187,0-8.374,0-12.561,0     c-26.93,0-53.861,0-80.791,0C121.626,223.19,121.626,233.19,128.075,233.19L128.075,233.19z"/></g></g><g><g><path d="M77.224,107.776c0-0.011,0-0.022,0-0.033c-1.667,1.667-3.333,3.333-5,5c24.831,0,49.661,0,74.492,0     c5.268,0,10.536,0,15.804,0c1.041,0,2.082,0,3.122,0c2.568,0,2.68,4.355,0.092,4.355c-10.101,0-20.201,0-30.302,0     c-20.3,0-40.601,0-60.901,0c-6.449,0-6.449,10,0,10c24.982,0,49.964,0,74.946,0c9.74,0,24.663,2.856,27.882-9.559     c2.064-7.961-4.752-14.796-12.365-14.796c-4.039,0-8.078,0-12.117,0c-26.884,0-53.769,0-80.653,0c-2.726,0-5,2.274-5,5     c0,0.011,0,0.022,0,0.033C67.224,114.225,77.224,114.225,77.224,107.776L77.224,107.776z"/></g></g><g><g><path d="M227.376,327.183c18.041,0,36.082,0,54.122,0c3.719,0,2.862,4.357-0.552,4.357c-4.867,0-9.734,0-14.603,0     c-9.258,0-18.516,0-27.774,0c-6.449,0-6.449,10,0,10c10.802,0,21.604,0,32.407,0c3.78,0,7.562,0,11.342,0     c11.284,0,14.91-13.803,7.915-21.203c-3.334-3.528-8.263-3.154-12.649-3.154c-6.424,0-12.847,0-19.27,0     c-10.313,0-20.626,0-30.938,0C220.927,317.183,220.927,327.183,227.376,327.183L227.376,327.183z"/></g></g><g><g><path d="M372.572,395.872c-9.006,0-18.011,0-27.017,0c-5.78,0-11.562,0-17.342,0c-1.612,0-3.225,0-4.838,0     c-2.55,0-4.128-4.013-0.887-4.356c8.845-0.938,18.293,0,27.178,0c9.06,0,18.118,0,27.178,0c6.448,0,6.448-10,0-10     c-10.708,0-21.416,0-32.125,0c-6.188,0-12.377,0-18.565,0c-6.069,0-12.728,1.175-14.747,8.056     c-2.398,8.173,2.961,16.301,11.704,16.301c5.229,0,10.46,0,15.689,0c11.257,0,22.515,0,33.771,0     C379.021,405.872,379.021,395.872,372.572,395.872L372.572,395.872z"/></g></g></g></svg>
