<svg fill="#5bffe4" xmlns="http://www.w3.org/2000/svg" xmlns:xlink="http://www.w3.org/1999/xlink" version="1.1" x="0px" y="0px" viewBox="0 0 512 640" enable-background="new 0 0 512 512" xml:space="preserve"><g><g><g><path d="M126.221,242.805c44.054,0,88.107,0,132.162,0c46.308,0,92.614,0,138.922,0c0.08,0,0.159,0,0.238,0     c-1.667-1.667-3.333-3.333-5-5v0.001c0,2.707,2.274,5.024,5,5c46.773-0.421,84.359-40.389,81.404-87.195     c-2.938-46.532-46.508-81.444-92.445-75.212c-40.172,5.45-70.201,40.491-70.564,80.802c-0.059,6.451,9.942,6.445,10,0     c0.203-22.577,10.728-43.944,28.891-57.495c18.417-13.74,42.463-17.421,64.321-10.781c21.185,6.436,38.337,23.446,45.838,44.134     c7.844,21.632,4.279,45.746-8.427,64.723c-13.059,19.505-35.778,30.815-59.018,31.024c1.667,1.667,3.333,3.333,5,5v-0.001     c0-2.726-2.274-5-5-5c-44.054,0-88.107,0-132.161,0c-46.308,0-92.615,0-138.923,0c-0.079,0-0.159,0-0.238,0     C119.772,232.805,119.772,242.805,126.221,242.805L126.221,242.805z"/></g></g><g><g><path d="M37.851,312.02c44.788,0,89.577,0,134.365,0c42.128,0,84.256,0,126.384,0c2.726,0,5-2.274,5-5c0-0.001,0-0.003,0-0.004     c-1.667,1.667-3.333,3.333-5,5c22.497,0.21,43.536,11.084,56.452,29.575c13.118,18.779,15.424,42.956,7.428,64.224     c-7.79,20.72-26.4,36.073-47.586,41.485c-21.966,5.61-45.738-0.855-62.466-15.905c-14.367-12.926-22.27-31.544-22.449-50.76     c-0.06-6.445-10.06-6.451-10,0c0.434,46.619,41.745,83.637,88.271,77.982c22.151-2.691,41.668-14.872,54.691-32.831     c13.288-18.324,17.129-42.283,11.978-64.108c-8.24-34.911-40.926-59.333-76.318-59.662c-2.726-0.025-5,2.294-5,5     c0,0.001,0,0.003,0,0.004c1.667-1.667,3.333-3.333,5-5c-44.788,0-89.577,0-134.365,0c-42.128,0-84.256,0-126.384,0     C31.402,302.02,31.402,312.02,37.851,312.02L37.851,312.02z"/></g></g><g><g><path d="M37.851,166.208c49.924,0,99.848,0,149.772,0c21.814,0,45.918,3.041,65.031-9.608     c19.139-12.667,27.964-35.755,24.084-58.046c-3.825-21.982-21.992-39.565-43.416-44.464     c-35.188-8.045-68.509,19.963-68.98,55.386c-0.086,6.452,9.915,6.443,10,0c0.309-23.265,17.009-42.278,39.805-46.243     c22.732-3.954,44.957,11.264,51.68,32.751c6.969,22.267-4.565,45.808-25.039,55.894c-8.862,4.366-18.315,4.329-27.864,4.329     c-54.858,0-109.716,0-164.574,0c-3.5,0-7.001,0-10.501,0C31.402,156.208,31.402,166.208,37.851,166.208L37.851,166.208z"/></g></g></g></svg>
